<svg width="22" height="22" viewBox="0 0 22 22" fill="none" xmlns="http://www.w3.org/2000/svg">
<path d="M14 11C14 9.34 12.66 8 11 8C9.34 8 8 9.34 8 11C8 12.66 9.34 14 11 14C11.41 14 11.81 13.92 12.17 13.76" stroke="#292D32" stroke-width="1.5" stroke-miterlimit="10" stroke-linecap="round" stroke-linejoin="round"/>
<path d="M5.88 19.58L6.97 20.21C7.76 20.68 8.78 20.4 9.25 19.61L9.36 19.42C10.26 17.85 11.74 17.85 12.65 19.42L12.76 19.61C13.23 20.4 14.25 20.68 15.04 20.21L16.77 19.22C17.68 18.7 17.99 17.53 17.47 16.63C16.56 15.06 17.3 13.78 19.11 13.78C20.15 13.78 21.01 12.93 21.01 11.88V10.12C21.01 9.08001 20.16 8.22001 19.11 8.22001C18.1 8.22001 17.42 7.82001 17.18 7.19001C16.99 6.70001 17.07 6.06001 17.47 5.37001C17.99 4.46001 17.68 3.30001 16.77 2.78001L15.96 2.32001" stroke="#292D32" stroke-width="1.5" stroke-miterlimit="10" stroke-linecap="round" stroke-linejoin="round"/>
<path d="M12.64 2.58C11.74 4.15 10.26 4.15 9.35 2.58L9.24 2.39C8.78 1.6 7.76 1.32 6.97 1.79L5.24 2.78C4.33 3.3 4.02 4.47 4.54 5.38C5.45 6.94 4.71 8.22 2.9 8.22C1.86 8.22 1 9.07 1 10.12V11.88C1 12.92 1.85 13.78 2.9 13.78C4.71 13.78 5.45 15.06 4.54 16.63" stroke="#292D32" stroke-width="1.5" stroke-miterlimit="10" stroke-linecap="round" stroke-linejoin="round"/>
</svg>
