<svg width="223" height="39" viewBox="0 0 223 39" fill="none" xmlns="http://www.w3.org/2000/svg">
<g filter="url(#filter0_d_1_905)">
<path d="M9.34707 8.79393V19.4881H14.6941C15.427 19.4881 16.1163 19.3514 16.7622 19.0782C17.408 18.7925 17.9732 18.4075 18.4576 17.9231C18.942 17.4387 19.3208 16.8735 19.5941 16.2277C19.8797 15.5694 20.0226 14.8738 20.0226 14.141C20.0226 13.4082 19.8797 12.7188 19.5941 12.073C19.3208 11.4147 18.942 10.8433 18.4576 10.3589C17.9732 9.87452 17.408 9.49569 16.7622 9.22244C16.1163 8.93676 15.427 8.79393 14.6941 8.79393H9.34707ZM9.34707 30.1636H4V3.44686H14.6941C15.6754 3.44686 16.6193 3.57728 17.526 3.83811C18.4327 4.08652 19.2773 4.44672 20.0598 4.9187C20.8548 5.37826 21.5751 5.93719 22.221 6.59548C22.8793 7.24135 23.4382 7.96175 23.8978 8.75667C24.3698 9.55158 24.73 10.4024 24.9784 11.3091C25.2392 12.2158 25.3696 13.1598 25.3696 14.141C25.3696 15.6066 25.0902 16.9915 24.5312 18.2957C23.9723 19.5874 23.2085 20.7177 22.2396 21.6865C21.2708 22.6553 20.1344 23.4192 18.8302 23.9781C17.5385 24.537 16.1598 24.8165 14.6941 24.8165H9.34707V30.1636Z" fill="#EE26C2"/>
<path d="M33.9771 4.78828C33.9771 5.26027 33.884 5.7012 33.6977 6.11108C33.5238 6.52096 33.2816 6.88116 32.971 7.19167C32.6605 7.48976 32.2941 7.73197 31.8718 7.91828C31.4619 8.09216 31.021 8.17911 30.549 8.17911C30.077 8.17911 29.6299 8.09216 29.2076 7.91828C28.7977 7.73197 28.4375 7.48976 28.127 7.19167C27.8289 6.88116 27.5867 6.52096 27.4004 6.11108C27.2265 5.7012 27.1396 5.26027 27.1396 4.78828C27.1396 4.32872 27.2265 3.894 27.4004 3.48412C27.5867 3.06182 27.8289 2.70162 28.127 2.40353C28.4375 2.09301 28.7977 1.85081 29.2076 1.67692C29.6299 1.49062 30.077 1.39746 30.549 1.39746C31.021 1.39746 31.4619 1.49062 31.8718 1.67692C32.2941 1.85081 32.6605 2.09301 32.971 2.40353C33.2816 2.70162 33.5238 3.06182 33.6977 3.48412C33.884 3.894 33.9771 4.32872 33.9771 4.78828ZM33.1015 30.1636H27.978V10.2099H33.1015V30.1636Z" fill="#EE26C2"/>
<path d="M42.0816 30.1636H36.9953V10.2099H38.225L39.9017 12.1475C40.7215 11.4023 41.6468 10.8309 42.6777 10.4334C43.7211 10.0236 44.8079 9.81863 45.9382 9.81863C47.1554 9.81863 48.3043 10.0546 49.3849 10.5266C50.4655 10.9862 51.4094 11.6258 52.2168 12.4456C53.0241 13.2529 53.6576 14.2031 54.1171 15.2961C54.5891 16.3767 54.8251 17.5318 54.8251 18.7615V30.1636H49.7389V18.7615C49.7389 18.2398 49.6395 17.7492 49.4408 17.2896C49.242 16.8176 48.9688 16.4078 48.621 16.06C48.2732 15.7122 47.8696 15.4389 47.41 15.2402C46.9504 15.0415 46.4598 14.9421 45.9382 14.9421C45.4041 14.9421 44.901 15.0415 44.429 15.2402C43.9571 15.4389 43.5472 15.7122 43.1994 16.06C42.8516 16.4078 42.5784 16.8176 42.3797 17.2896C42.1809 17.7492 42.0816 18.2398 42.0816 18.7615V30.1636Z" fill="#EE26C2"/>
<path d="M63.5816 30.1636H58.4581V2.27311H63.5816V19.8607L71.1644 10.2471H77.0145L70.4005 18.5565L77.0145 30.1636H71.1644L67.1215 22.9161L63.5816 27.6111V30.1636Z" fill="#EE26C2"/>
</g>
<path fill-rule="evenodd" clip-rule="evenodd" d="M103.42 4.17544C102.901 3.79762 102.355 3.45298 101.785 3.14465C98.9385 1.60511 95.6626 1.06292 92.4783 1.59808C92.4266 1.60652 92.375 1.61526 92.3233 1.62429C91.11 1.83174 89.9358 2.19239 88.8009 2.70624C87.6659 3.2201 86.6119 3.86827 85.6388 4.65074C84.6824 5.42567 83.8236 6.32734 83.0624 7.35577C82.3133 8.38877 81.7059 9.52357 81.2401 10.7602C80.7743 11.9968 80.482 13.2503 80.3634 14.5208C80.2615 15.7837 80.3119 17.0279 80.5148 18.2534C80.7344 19.4713 81.1011 20.6477 81.6149 21.7826C81.6933 21.9558 81.7747 22.1271 81.8591 22.2964C82.338 23.2722 82.9282 24.1973 83.6226 25.0521C85.7389 27.6572 88.693 29.4478 91.9815 30.119C95.27 30.7901 98.6896 30.3002 101.657 28.7328C104.625 27.1654 106.958 24.6174 108.258 21.523L103.057 19.3386C102.209 21.3537 100.629 23.0221 98.5941 23.9584L98.5761 23.8632C97.8332 24.2186 97.0281 24.4762 96.1745 24.6169C95.0708 24.7988 93.981 24.7695 92.9464 24.5587C89.5234 23.7917 86.7404 21.0201 86.1349 17.3464C85.3387 12.5153 88.6096 7.95343 93.4407 7.15719C96.2422 6.69547 98.9531 7.60137 100.892 9.38605C101.818 10.2725 102.56 11.3634 103.038 12.6029L108.96 10.3917L108.988 10.4666C109.828 9.53607 110.723 8.45571 111.642 7.31606C109.82 7.21157 108.092 7.14082 106.627 7.1777C107.027 5.66425 107.363 3.77951 107.684 1.77293C106.115 2.59986 104.638 3.40823 103.42 4.17544Z" fill="black"/>
<path d="M118.835 30.0359H113.699V1.88386H118.835V10.7789C119.45 10.315 120.084 9.98908 120.736 9.80103C121.388 9.60043 122.053 9.50014 122.73 9.50014C123.972 9.50014 125.139 9.73834 126.23 10.2148C127.321 10.6786 128.268 11.3243 129.071 12.1517C129.887 12.9666 130.526 13.9257 130.99 15.029C131.467 16.1197 131.705 17.2857 131.705 18.5268V30.0359H126.531V18.5268H126.569C126.569 18.0003 126.468 17.5051 126.268 17.0412C126.067 16.5648 125.791 16.1511 125.44 15.8C125.089 15.449 124.681 15.1732 124.217 14.9726C123.753 14.772 123.257 14.6717 122.73 14.6717C122.191 14.6717 121.683 14.772 121.206 14.9726C120.73 15.1732 120.316 15.449 119.964 15.8C119.613 16.1511 119.337 16.5648 119.137 17.0412C118.936 17.5051 118.835 18.0003 118.835 18.5268V30.0359Z" fill="black"/>
<path d="M141.433 4.42262C141.433 4.89903 141.339 5.3441 141.151 5.75782C140.975 6.17154 140.731 6.53512 140.417 6.84855C140.104 7.14944 139.734 7.39391 139.307 7.58196C138.893 7.75748 138.448 7.84524 137.971 7.84524C137.495 7.84524 137.043 7.75748 136.616 7.58196C136.202 7.39391 135.839 7.14944 135.525 6.84855C135.224 6.53512 134.979 6.17154 134.791 5.75782C134.616 5.3441 134.528 4.89903 134.528 4.42262C134.528 3.95875 134.616 3.51995 134.791 3.10623C134.979 2.67997 135.224 2.31639 135.525 2.0155C135.839 1.70208 136.202 1.4576 136.616 1.28208C137.043 1.09403 137.495 1 137.971 1C138.448 1 138.893 1.09403 139.307 1.28208C139.734 1.4576 140.104 1.70208 140.417 2.0155C140.731 2.31639 140.975 2.67997 141.151 3.10623C141.339 3.51995 141.433 3.95875 141.433 4.42262ZM140.549 30.0359H135.375V9.89505H140.549V30.0359Z" fill="black"/>
<path d="M162.093 13.9007L158.33 17.6806C158.142 17.154 157.885 16.6839 157.558 16.2702C157.232 15.8439 156.862 15.4866 156.448 15.1982C156.047 14.9099 155.608 14.6905 155.131 14.54C154.655 14.3896 154.165 14.3144 153.664 14.3144C152.961 14.3144 152.296 14.4586 151.669 14.7469C151.054 15.0353 150.515 15.4427 150.051 15.9693C149.599 16.4833 149.242 17.0976 148.978 17.8122C148.715 18.5268 148.583 19.3167 148.583 20.1817C148.583 20.8838 148.715 21.542 148.978 22.1563C149.242 22.7706 149.599 23.3097 150.051 23.7736C150.515 24.2375 151.054 24.601 151.669 24.8643C152.296 25.1276 152.961 25.2592 153.664 25.2592C154.165 25.2592 154.648 25.1903 155.112 25.0524C155.577 24.9145 156.009 24.7201 156.411 24.4694C156.825 24.2061 157.188 23.8927 157.502 23.5291C157.828 23.153 158.092 22.7393 158.292 22.288L162.055 26.0679C161.579 26.7449 161.027 27.3529 160.4 27.892C159.785 28.4311 159.114 28.8887 158.386 29.2648C157.671 29.6409 156.912 29.923 156.11 30.1111C155.319 30.3117 154.504 30.412 153.664 30.412C152.246 30.412 150.91 30.1487 149.656 29.6221C148.414 29.083 147.323 28.3496 146.382 27.4219C145.454 26.4941 144.72 25.4097 144.18 24.1685C143.641 22.9273 143.371 21.5984 143.371 20.1817C143.371 18.6397 143.641 17.1979 144.18 15.8564C144.72 14.515 145.454 13.349 146.382 12.3586C147.323 11.3556 148.414 10.5658 149.656 9.98908C150.91 9.41238 152.246 9.12402 153.664 9.12402C154.504 9.12402 155.326 9.23059 156.128 9.44372C156.944 9.65685 157.715 9.97028 158.443 10.384C159.183 10.7852 159.86 11.2804 160.475 11.8696C161.102 12.4589 161.642 13.1359 162.093 13.9007Z" fill="black"/>
<path d="M169.789 30.0359H164.614V1.88386H169.789V19.6364L177.447 9.93267H183.355L176.675 18.32L183.355 30.0359H177.447L173.364 22.7205L169.789 27.4595V30.0359Z" fill="black"/>
<path d="M192.763 25.1088C192.964 25.1715 193.164 25.2154 193.365 25.2404C193.566 25.253 193.766 25.2592 193.967 25.2592C194.469 25.2592 194.952 25.1903 195.416 25.0524C195.88 24.9145 196.313 24.7201 196.714 24.4694C197.128 24.2061 197.492 23.8927 197.806 23.5291C198.132 23.153 198.395 22.7393 198.596 22.288L202.359 26.0679C201.882 26.7449 201.33 27.3529 200.703 27.892C200.089 28.4311 199.417 28.8887 198.69 29.2648C197.975 29.6409 197.216 29.923 196.413 30.1111C195.623 30.3117 194.808 30.412 193.967 30.412C192.55 30.412 191.214 30.1487 189.959 29.6221C188.718 29.0956 187.626 28.3622 186.685 27.4219C185.757 26.4816 185.023 25.3658 184.484 24.0745C183.945 22.7706 183.675 21.3414 183.675 19.7868C183.675 18.1946 183.945 16.7403 184.484 15.4239C185.023 14.1075 185.757 12.9854 186.685 12.0577C187.626 11.13 188.718 10.4091 189.959 9.89505C191.214 9.38103 192.55 9.12402 193.967 9.12402C194.808 9.12402 195.629 9.22432 196.432 9.42491C197.235 9.62551 197.994 9.91386 198.709 10.29C199.436 10.6661 200.114 11.13 200.741 11.6816C201.368 12.2207 201.92 12.8287 202.397 13.5057L192.763 25.1088ZM195.397 14.5212C195.159 14.4335 194.92 14.3771 194.682 14.352C194.456 14.3269 194.218 14.3144 193.967 14.3144C193.265 14.3144 192.6 14.446 191.973 14.7093C191.358 14.96 190.819 15.3236 190.355 15.8C189.903 16.2764 189.545 16.8531 189.282 17.5301C189.019 18.1946 188.887 18.9468 188.887 19.7868C188.887 19.9749 188.893 20.188 188.906 20.4262C188.931 20.6644 188.962 20.9089 189 21.1596C189.05 21.3978 189.106 21.6298 189.169 21.8554C189.232 22.0811 189.313 22.2817 189.414 22.4572L195.397 14.5212Z" fill="black"/>
<path d="M210.13 30.0359H204.993V9.89505H206.235L207.929 11.8508C208.756 11.0986 209.691 10.5219 210.732 10.1207C211.786 9.707 212.883 9.50014 214.025 9.50014C215.254 9.50014 216.414 9.73834 217.506 10.2148C218.597 10.6786 219.55 11.3243 220.366 12.1517C221.181 12.9666 221.821 13.9257 222.285 15.029C222.762 16.1197 223 17.2857 223 18.5268V30.0359H217.863V18.5268C217.863 18.0003 217.763 17.5051 217.562 17.0412C217.362 16.5648 217.086 16.1511 216.734 15.8C216.383 15.449 215.975 15.1732 215.511 14.9726C215.047 14.772 214.552 14.6717 214.025 14.6717C213.485 14.6717 212.977 14.772 212.501 14.9726C212.024 15.1732 211.61 15.449 211.259 15.8C210.908 16.1511 210.632 16.5648 210.431 17.0412C210.23 17.5051 210.13 18.0003 210.13 18.5268V30.0359Z" fill="black"/>
<defs>
<filter id="filter0_d_1_905" x="0" y="1.39746" width="81.0144" height="36.7661" filterUnits="userSpaceOnUse" color-interpolation-filters="sRGB">
<feFlood flood-opacity="0" result="BackgroundImageFix"/>
<feColorMatrix in="SourceAlpha" type="matrix" values="0 0 0 0 0 0 0 0 0 0 0 0 0 0 0 0 0 0 127 0" result="hardAlpha"/>
<feOffset dy="4"/>
<feGaussianBlur stdDeviation="2"/>
<feComposite in2="hardAlpha" operator="out"/>
<feColorMatrix type="matrix" values="0 0 0 0 0 0 0 0 0 0 0 0 0 0 0 0 0 0 0.25 0"/>
<feBlend mode="normal" in2="BackgroundImageFix" result="effect1_dropShadow_1_905"/>
<feBlend mode="normal" in="SourceGraphic" in2="effect1_dropShadow_1_905" result="shape"/>
</filter>
</defs>
</svg>
